PathFileType	4	(X/Y/Z)	Patient4_TMGait_0pt3_01_right_09.trc.trc
DataRate	CameraRate	NumFrames	NumMarkers	Units	OrigDataRate	OrigDataStartFrame	OrigNumFrames
52.044609665427	52.044609665427	4	33	mm	52.044609665427	18	       141
Frame#	Time	Sacral			L.Shoulder			Chest			R.Shoulder			Neck			R.ASIS			L.ASIS			R.Thigh.Superior			R.Thigh.Lateral			R.Thigh.Inferior			R.Patella			L.Thigh.Superior			L.Thigh.Lateral			L.Thigh.Inferior			L.Patella			L.Shank.Superior			L.Shank.Lateral			L.Shank.Inferior			R.Shank.Superior			R.Shank.Lateral			R.Shank.Inferior			R.Heel			R.Midfoot.Superior			R.Midfoot.Lateral			R.Toe			L.Heel			L.Midfoot.Lateral			L.Midfoot.Superior			L.Toe			L.Elbow			L.Wrist			R.Elbow			R.Wrist			
		X1	Y1	Z1	X2	Y2	Z2	X3	Y3	Z3	X4	Y4	Z4	X5	Y5	Z5	X6	Y6	Z6	X7	Y7	Z7	X8	Y8	Z8	X9	Y9	Z9	X10	Y10	Z10	X11	Y11	Z11	X12	Y12	Z12	X13	Y13	Z13	X14	Y14	Z14	X15	Y15	Z15	X16	Y16	Z16	X17	Y17	Z17	X18	Y18	Z18	X19	Y19	Z19	X20	Y20	Z20	X21	Y21	Z21	X22	Y22	Z22	X23	Y23	Z23	X24	Y24	Z24	X25	Y25	Z25	X26	Y26	Z26	X27	Y27	Z27	X28	Y28	Z28	X29	Y29	Z29	X30	Y30	Z30	X31	Y31	Z31	X32	Y32	Z32	X33	Y33	Z33	

18	15.846642857143	698.540989189473	1022.215492482946	425.005129817407	964.138303678395	1425.929748463728	273.582174273505	1017.797155717963	1357.469804880199	455.617458794132	903.176360444299	1448.959286053442	601.695565170091	914.060771168721	1495.232566349080	426.952287144088	895.718414333567	950.029805024648	590.261710691886	937.111608215629	953.396351965370	317.086221570783	961.560673544994	773.062944242511	572.363142351047	903.587856345676	655.899894110242	639.090407412581	994.901748392694	610.760614997525	568.399470729251	1020.021593330043	525.553204381425	592.218506484223	941.710526513427	732.283702882264	352.082040717337	840.840845319558	629.470760094556	282.919472872793	902.983918867033	543.032783861941	357.354183585559	891.420578858723	477.036421865032	366.336204671045	859.421661111561	410.176427112841	356.400133536159	762.832412637418	301.301766949107	308.097817103740	803.983241275171	188.816457058907	383.023831272215	994.119454685734	437.390908974444	600.854886769769	923.982035742898	331.747588107583	660.402640450722	987.264225905359	238.074693188570	615.583393343137	877.089551696977	61.093139143337	582.617196767811	1041.438312906774	121.253336712198	631.587331631614	957.689311233852	50.616404470367	658.870818592741	1162.274735662629	77.015220397910	662.753753651653	667.674600012531	38.071629798504	432.487338699256	736.322179936532	35.163517996975	347.178238164000	822.489048748686	95.038617913995	369.707016024054	948.124988266825	41.143281035129	332.055244702072	983.401761789825	1084.948051952817	138.007384538095	1215.356442888009	1005.924492054854	212.927244230900	727.838493049608	1147.702592614860	703.890952491964	722.439554535790	889.726635501357	748.110304290468	
19	15.865857142857	699.047379839842	1021.190789280255	426.297247048862	965.153381148830	1424.889815320478	277.127988892188	1017.667011668539	1356.377621522951	459.468882365193	901.985333065103	1447.852497537049	604.778218005928	914.271460255061	1494.171393537699	430.231476306450	895.044775267291	948.230354893898	593.046576762016	938.114911154956	952.466534946988	319.830695521116	958.384053375681	769.001298872159	575.500283227968	896.865119897790	652.411864869319	640.262972618838	988.162163627897	606.756591275997	570.072290230140	1012.202311669212	524.128949368105	591.966080577742	939.694869059848	730.725340291342	354.069840258708	837.503796756725	629.461894971492	283.439197813069	897.567417325384	542.050640527573	357.880611656031	884.898124958385	476.662743387353	366.619910189553	853.392712694738	410.099312050517	356.584671919091	757.024735791946	301.175529872990	307.865585546366	798.054807964983	188.742310765000	383.025960234783	990.946641610972	435.960488569499	601.243025498816	926.705761444059	326.784899709807	661.965280743818	994.627170876283	236.114568028340	616.822621110618	892.823260701811	54.142896887592	586.016962200484	1055.619027613115	120.663462441613	631.849850110282	975.413955121107	46.341283926611	660.480759360416	1179.182015452615	81.132164855532	660.431777255036	661.817975660202	37.938682289840	432.425587393927	730.445869733997	35.055765076317	347.105923767627	816.585001351656	94.998342611369	369.706711071794	942.262269838114	41.177213901362	332.147705159490	987.380460035505	1082.970030307448	144.328413659358	1218.314224067465	1007.345949145925	225.322996781169	725.732535695378	1146.803382579424	705.420146832714	722.770174754130	888.766263656483	750.067777149843	
20	15.885071428571	700.033977064485	1019.703940167233	428.154367197964	965.700551390141	1423.827960329258	281.008319991981	1017.560745074940	1355.242897257519	463.498989188768	901.004605159456	1446.399229353908	608.361415245413	914.291291440766	1492.928266344833	433.980939249555	895.213834680554	946.113513491180	595.894283936575	939.466240662153	951.444078851532	322.677268841172	956.249080762800	764.700894640459	578.708102277203	891.127555362649	648.664741815419	641.437435385786	982.525137039803	602.682040981246	571.773583080704	1005.173057942842	522.194853916788	591.778547443422	938.341836538321	729.077621067979	356.060508202087	834.751389477953	629.318876417809	284.181417811441	892.857076136150	540.996589259616	358.505768552464	879.155964350842	476.159204029280	367.030118894411	847.950700371204	409.849566959404	356.940902695012	751.603676574001	301.060445793331	307.757618878313	792.290097058857	188.570175777930	383.068914934098	987.853140472913	434.041224203444	601.573237982570	928.426457473477	322.185981002385	663.033774953213	1000.049481336172	234.140582101524	617.611115579069	905.075329586997	48.793444111272	588.578104422289	1066.632444213318	119.950538586664	631.534195318409	989.257686462348	43.052106033280	661.451265516482	1192.147491275697	83.910730592127	657.757145197552	655.950110052588	37.793502337475	432.354042900829	724.573057117838	34.936419171748	347.034778180690	810.673958424386	94.951067330129	369.714160258629	936.400298286514	41.182152122796	332.232227120497	991.043855850551	1080.862536421302	151.164043700535	1220.812430171225	1007.923370857429	237.517126869873	724.927042216041	1144.882886431572	707.472650309372	724.761007480864	886.725372807029	752.226854564956	
21	15.904285714286	701.501389413300	1017.890607549205	430.588982383970	965.848465084252	1422.848283227362	285.212224218121	1017.523150553858	1354.172711642739	467.710711276020	900.271792477378	1444.721279827708	612.434574989721	914.147743860287	1491.608991548576	438.185144015464	896.238421509156	943.847132305344	598.821063601047	941.177100505995	950.425099300462	325.648594574642	955.299203404611	760.458520554800	581.904255658294	886.707258817812	644.897204228788	642.611504013973	978.284836174022	598.806128261625	573.452942062937	999.305709373368	519.927772835500	591.679744143599	937.610725013360	727.386463960999	358.101517560716	832.528828660179	629.098839999634	285.212634327172	888.813836439571	539.914658479692	359.305398199961	874.153579858021	475.553681788534	367.637035659467	843.055592958195	409.473311073372	357.509826585236	746.512478523460	301.008290172437	307.829894894274	786.675941101544	188.332134866841	383.165486909298	985.124873294323	431.733019620156	601.843909313349	929.283154595458	317.996380037089	663.614038491664	1003.589707003871	232.056397428143	617.916516872873	913.587681183974	44.905945287929	590.223200285292	1074.384336308879	118.907168076909	630.650639774803	998.951387646791	40.594046955906	661.798688793979	1201.100531611133	85.014895182528	654.890404612228	650.073157250120	37.645851112798	432.271340250152	718.709169791666	34.811474862393	346.969932934117	804.762650785999	94.903711363445	369.726962542597	930.544964028114	41.155482932172	332.302941400380	994.230150527132	1078.733522719640	158.461117552574	1222.760297739631	1007.741757599694	249.433585571210	725.399213494270	1142.120696313832	710.086450978463	728.365880159806	883.811319140346	754.633943060355	
